<?xml version="1.0" encoding="iso-8859-1"?>
<!-- Generator: Adobe Illustrator 19.0.0, SVG Export Plug-In . SVG Version: 6.00 Build 0)  -->
<svg version="1.1" id="Layer_1" xmlns="http://www.w3.org/2000/svg" xmlns:xlink="http://www.w3.org/1999/xlink" x="0px" y="0px"
	 viewBox="0 0 309.529 309.529" style="enable-background:new 0 0 309.529 309.529;" xml:space="preserve">
<g>
	<path style="fill:#F4B459;" d="M179.728,251.279c0-39.586,32.096-71.682,71.682-71.682c6.698,0,13.173,0.995,19.329,2.716V86.711
		L183.69,0H19.46C8.79,0,0.13,8.65,0.13,19.329v270.609c0,10.679,8.659,19.329,19.329,19.329h189.929
		C191.441,296.239,179.728,275.161,179.728,251.279z"/>
	<path style="fill:#D07C40;" d="M270.46,86.981h-67.372c-10.67,0-19.329-8.659-19.329-19.329V0.193L270.46,86.981z"/>
	<path style="fill:#3DB39E;" d="M251.41,193.553c32.028,0,57.988,25.969,57.988,57.988c0,32.009-25.959,57.988-57.988,57.988
		c-32.009,0-57.988-25.978-57.988-57.988C193.422,219.522,219.401,193.553,251.41,193.553z"/>
	<path style="fill:#FFFFFF;" d="M270.74,241.876h-9.665v-9.665c0-5.345-4.32-9.665-9.665-9.665c-5.345,0-9.665,4.32-9.665,9.665
		v9.665h-9.665c-5.345,0-9.665,4.32-9.665,9.665c0,5.354,4.32,9.665,9.665,9.665h9.665v9.665c0,5.354,4.32,9.665,9.665,9.665
		c5.344,0,9.665-4.31,9.665-9.665v-9.665h9.665c5.345,0,9.665-4.31,9.665-9.665C280.404,246.206,276.085,241.876,270.74,241.876z"/>
	<path style="fill:#FFFFFF;" d="M171.3,135.275c-2.774,0-6.949,2.619-6.949,7.306v53.204c0,4.678,4.175,7.306,6.949,7.306
		c2.764,0,6.939-2.619,6.939-7.306v-53.204C178.239,137.894,174.064,135.275,171.3,135.275z M126.186,143.007
		c-1.566-4.455-4.987-7.703-9.877-7.703c-4.707,0-8.302,3.431-9.868,7.712l-18.556,50.507c-0.184,0.474-0.638,1.585-0.638,3.073
		c0,3.702,3.131,6.495,6.833,6.495c3.779,0,5.721-2.039,6.649-4.929l2.764-8.63h25.64l2.774,8.717
		c0.928,2.793,2.861,4.832,6.736,4.832c3.412,0,6.359-2.513,6.359-6.137c0-0.638-0.193-1.943-0.735-3.431
		C144.268,193.514,126.186,143.007,126.186,143.007z M107.446,176.717l8.766-26.935h0.193l8.573,26.935H107.446z"/>
</g>
<g>
</g>
<g>
</g>
<g>
</g>
<g>
</g>
<g>
</g>
<g>
</g>
<g>
</g>
<g>
</g>
<g>
</g>
<g>
</g>
<g>
</g>
<g>
</g>
<g>
</g>
<g>
</g>
<g>
</g>
</svg>
