<?xml version="1.0" encoding="UTF-8" standalone="no"?>
<!-- Generator: Adobe Illustrator 19.0.0, SVG Export Plug-In . SVG Version: 6.00 Build 0)  -->

<svg
   version="1.1"
   id="Capa_1"
   x="0px"
   y="0px"
   viewBox="0 0 47.94 47.94"
   style="enable-background:new 0 0 47.94 47.94;"
   xml:space="preserve"
   sodipodi:docname="unstarred.svg"
   inkscape:version="1.1.1 (3bf5ae0d25, 2021-09-20)"
   xmlns:inkscape="http://www.inkscape.org/namespaces/inkscape"
   xmlns:sodipodi="http://sodipodi.sourceforge.net/DTD/sodipodi-0.dtd"
   xmlns="http://www.w3.org/2000/svg"
   xmlns:svg="http://www.w3.org/2000/svg"><sodipodi:namedview
   id="namedview22"
   pagecolor="#ffffff"
   bordercolor="#666666"
   borderopacity="1.0"
   inkscape:pageshadow="2"
   inkscape:pageopacity="0.0"
   inkscape:pagecheckerboard="0"
   showgrid="false"
   inkscape:zoom="18.210263"
   inkscape:cx="23.942542"
   inkscape:cy="23.969999"
   inkscape:window-width="1271"
   inkscape:window-height="1081"
   inkscape:window-x="1201"
   inkscape:window-y="11"
   inkscape:window-maximized="0"
   inkscape:current-layer="Capa_1" /><defs
   id="defs37" />
<path
   style="fill:#ED8A19;"
   d="M26.285,2.486l5.407,10.956c0.376,0.762,1.103,1.29,1.944,1.412l12.091,1.757  c2.118,0.308,2.963,2.91,1.431,4.403l-8.749,8.528c-0.608,0.593-0.886,1.448-0.742,2.285l2.065,12.042  c0.362,2.109-1.852,3.717-3.746,2.722l-10.814-5.685c-0.752-0.395-1.651-0.395-2.403,0l-10.814,5.685  c-1.894,0.996-4.108-0.613-3.746-2.722l2.065-12.042c0.144-0.837-0.134-1.692-0.742-2.285l-8.749-8.528  c-1.532-1.494-0.687-4.096,1.431-4.403l12.091-1.757c0.841-0.122,1.568-0.65,1.944-1.412l5.407-10.956  C22.602,0.567,25.338,0.567,26.285,2.486z"
   id="path2" />
<g
   id="g4">
</g>
<g
   id="g6">
</g>
<g
   id="g8">
</g>
<g
   id="g10">
</g>
<g
   id="g12">
</g>
<g
   id="g14">
</g>
<g
   id="g16">
</g>
<g
   id="g18">
</g>
<g
   id="g20">
</g>
<g
   id="g22">
</g>
<g
   id="g24">
</g>
<g
   id="g26">
</g>
<g
   id="g28">
</g>
<g
   id="g30">
</g>
<g
   id="g32">
</g>
<path
   style="fill:#e6e6e6;stroke-width:0.0549141"
   d="M 9.9936468,46.742939 C 8.9278709,46.374402 8.2124628,45.414762 8.210308,44.350788 8.2099236,44.173786 8.6784033,41.294915 9.2513171,37.953297 9.8242308,34.611679 10.308256,31.741716 10.32693,31.5756 10.390363,31.011314 10.141852,30.210023 9.7640208,29.760579 9.6792906,29.65979 7.6083469,27.625225 5.1619243,25.239324 2.7155016,22.853424 0.62290291,20.782244 0.51170485,20.636702 -0.41699798,19.421162 0.06646064,17.549838 1.4829943,16.877129 c 0.3922344,-0.186271 0.4786585,-0.200514 6.7607333,-1.114208 3.9481544,-0.574238 6.4572134,-0.96255 6.6105334,-1.023072 0.490962,-0.193802 0.938865,-0.537367 1.20428,-0.923746 0.08496,-0.123676 1.396974,-2.745423 2.915593,-5.8261032 1.518619,-3.0806804 2.829402,-5.7014957 2.912853,-5.8240342 0.459981,-0.6754402 1.225234,-1.0676838 2.083012,-1.0676838 0.857562,0 1.620845,0.3911034 2.083705,1.0676838 0.08383,0.1225385 1.395028,2.7433538 2.91377,5.8240342 1.518742,3.0806802 2.830447,5.7024272 2.9149,5.8261032 0.263173,0.385402 0.7118,0.729763 1.203364,0.92369 0.153167,0.06043 2.666168,0.4493 6.610144,1.022886 6.283771,0.91387 6.367984,0.92775 6.760733,1.114265 1.414806,0.671888 1.897784,2.54154 0.971679,3.761455 -0.111199,0.146476 -2.247149,2.260595 -4.746558,4.698042 -4.734083,4.616722 -4.767463,4.652374 -4.967497,5.30562 -0.180374,0.589047 -0.148869,0.826888 0.964132,7.278444 0.578585,3.353786 1.051678,6.245012 1.05132,6.424949 -0.0019,0.952935 -0.555753,1.81028 -1.457304,2.255851 -0.376568,0.18611 -0.47607,0.210807 -0.929176,0.230624 -0.366721,0.01604 -0.594823,-0.0032 -0.822516,-0.0694 -0.173288,-0.05038 -2.790082,-1.392864 -5.815099,-2.983306 -3.025016,-1.590443 -5.648298,-2.953802 -5.829514,-3.029688 -0.281013,-0.117675 -0.414311,-0.137973 -0.906083,-0.137973 -0.492198,0 -0.624826,0.02023 -0.906082,0.138219 -0.181217,0.07602 -2.801055,1.438076 -5.821863,3.026789 -3.020807,1.588714 -5.626161,2.9283 -5.789674,2.976858 -0.395053,0.117318 -1.103864,0.112221 -1.4587332,-0.01049 z"
   id="path189" /><path
   style="fill:#e6e6e6;stroke-width:0.00390625"
   d="M 0.63042102,20.848633 C 0.52697562,20.729062 0.43495609,20.602402 0.3584447,20.474272 0.02726256,19.919657 -0.07743333,19.257024 0.06471689,18.615234 c 0.09443969,-0.426382 0.29065908,-0.818507 0.57565659,-1.15039 0.0486194,-0.05662 0.16573297,-0.175425 0.22681402,-0.230093 0.3573451,-0.31983 0.8022338,-0.531817 1.2832031,-0.61144 0.1109331,-0.01836 11.0838544,-1.611825 11.0917974,-1.610723 0.01134,0.0016 -0.77421,0.122474 -1.681641,0.258813 -1.132903,0.170217 -1.9735755,0.293899 -4.341797,0.638782 -3.0824832,0.448899 -3.9561645,0.579474 -4.6282275,0.691703 -0.5675072,0.09477 -0.8127293,0.149254 -0.9870069,0.219298 -0.069868,0.02808 -0.2174112,0.100827 -0.2947683,0.145337 -0.32601648,0.187582 -0.60822148,0.450773 -0.82332804,0.767854 -0.29208893,0.430558 -0.45199755,0.949293 -0.4521645,1.466797 -1.621e-4,0.50246 0.15058943,0.980971 0.43445653,1.379039 0.0464116,0.06508 0.0677011,0.08928 0.19150109,0.217641 l 0.0857089,0.08887 h -0.0407753 -0.0407753 z"
   id="path228" /><path
   style="fill:#999999;stroke-width:0.0549141"
   d="M 9.9300513,46.683514 C 9.0351933,46.352213 8.3337334,45.457858 8.2776755,44.576752 8.2466688,44.089389 8.3153756,43.643636 9.4521296,36.957181 9.921957,34.19363 10.319179,31.747207 10.334844,31.520686 10.367241,31.052247 10.266377,30.577368 10.03825,30.124298 9.873911,29.797913 9.8149975,29.738438 4.5118866,24.54525 2.3724039,22.450114 0.55159603,20.633703 0.46564704,20.50878 -0.1230295,19.653168 -0.02563807,18.366997 0.69109687,17.531443 0.88384125,17.306746 1.3164333,16.98211 1.558483,16.880518 1.9412544,16.719863 2.4708171,16.633184 8.0709184,15.81456 9.73127,15.571849 11.411641,15.324169 11.805076,15.264159 c 2.002462,-0.305431 2.87499,-0.449239 3.049185,-0.502559 0.286836,-0.0878 0.904867,-0.514302 1.097267,-0.757226 0.09301,-0.117436 1.476937,-2.842303 3.075392,-6.0552605 2.818409,-5.665112 2.915475,-5.8504349 3.210329,-6.1292958 0.964758,-0.91242756 2.501946,-0.9112895 3.468216,0.00257 0.298528,0.2823357 0.385389,0.448236 3.236105,6.1807958 3.241929,6.5192575 3.054488,6.1943555 3.804115,6.5939025 0.439454,0.234226 0.654303,0.270651 7.506341,1.272592 5.791256,0.846828 5.964253,0.878567 6.452406,1.183798 0.261878,0.163748 0.732402,0.671726 0.867516,0.936572 0.216403,0.424184 0.299804,0.83105 0.275321,1.34313 -0.02,0.418293 -0.04949,0.534592 -0.226289,0.892316 -0.193665,0.391855 -0.333955,0.539505 -2.962412,3.117826 -4.332908,4.250262 -6.600632,6.534202 -6.757549,6.80587 -0.07893,0.136657 -0.184166,0.40714 -0.233849,0.601073 -0.119392,0.466034 -0.07234,0.894034 0.42274,3.845614 0.210241,1.253414 0.65299,3.891597 0.983887,5.862628 0.357248,2.127994 0.601631,3.736121 0.601631,3.958946 0,0.896019 -0.536517,1.693472 -1.447853,2.152018 -0.415009,0.208815 -0.452952,0.217336 -0.967821,0.217336 -0.34247,0 -0.622506,-0.03056 -0.775899,-0.08468 -0.26348,-0.09296 -2.676175,-1.332739 -6.993872,-3.593843 -1.540955,-0.806972 -3.252681,-1.699441 -3.803836,-1.983265 l -1.002098,-0.516043 h -0.707758 -0.707757 l -0.898563,0.460033 c -0.494209,0.253019 -2.492444,1.293898 -4.440521,2.313066 -1.948078,1.019167 -4.209165,2.195602 -5.024639,2.614298 l -1.482681,0.761267 -0.604055,0.01551 c -0.487046,0.0125 -0.659061,-0.0049 -0.8880237,-0.08963 z"
   id="path250" /></svg>
