<?xml version="1.0" encoding="UTF-8" standalone="no"?>
<!-- Created with Inkscape (http://www.inkscape.org/) -->

<svg
   width="135.46666mm"
   height="123.1519mm"
   viewBox="0 0 135.46666 123.1519"
   version="1.1"
   id="svg5"
   inkscape:version="1.1.1 (3bf5ae0d25, 2021-09-20)"
   sodipodi:docname="update_feeds.svg"
   xmlns:inkscape="http://www.inkscape.org/namespaces/inkscape"
   xmlns:sodipodi="http://sodipodi.sourceforge.net/DTD/sodipodi-0.dtd"
   xmlns="http://www.w3.org/2000/svg"
   xmlns:svg="http://www.w3.org/2000/svg">
  <sodipodi:namedview
     id="namedview7"
     pagecolor="#ffffff"
     bordercolor="#666666"
     borderopacity="1.0"
     inkscape:pageshadow="2"
     inkscape:pageopacity="0.0"
     inkscape:pagecheckerboard="0"
     inkscape:document-units="mm"
     showgrid="false"
     inkscape:zoom="0.77771465"
     inkscape:cx="313.09684"
     inkscape:cy="424.96306"
     inkscape:window-width="1284"
     inkscape:window-height="1081"
     inkscape:window-x="1443"
     inkscape:window-y="215"
     inkscape:window-maximized="0"
     inkscape:current-layer="layer1" />
  <defs
     id="defs2" />
  <g
     inkscape:label="Layer 1"
     inkscape:groupmode="layer"
     id="layer1"
     transform="translate(-19.699657,-28.918896)">
    <g
       id="g71"
       transform="matrix(0.26458333,0,0,0.26458333,19.699657,22.761513)"
       style="fill:#f4b459;fill-opacity:1">
      <path
         style="fill:#f4b459;fill-opacity:1"
         d="M 488.727,271.515 H 333.576 c -12.853,0 -23.273,10.42 -23.273,23.273 v 54.303 H 256 201.697 v -54.303 c 0,-12.853 -10.42,-23.273 -23.273,-23.273 H 23.273 C 10.42,271.515 0,281.935 0,294.788 v 170.667 c 0,12.853 10.42,23.273 23.273,23.273 H 256 488.727 c 12.853,0 23.273,-10.42 23.273,-23.273 V 294.788 c 0,-12.853 -10.42,-23.273 -23.273,-23.273 z"
         id="path9" />
      <path
         style="fill:#f4b459;fill-opacity:1"
         d="m 286.09,169.726 -6.817,6.816 V 46.545 c 0,-12.853 -10.42,-23.273 -23.273,-23.273 -12.853,0 -23.273,10.42 -23.273,23.273 v 129.997 l -6.817,-6.817 c -9.087,-9.089 -23.824,-9.089 -32.912,0 -9.089,9.087 -9.089,23.824 0,32.912 l 46.542,46.542 0.003,0.003 c 0.549,0.549 1.12,1.061 1.707,1.542 0.264,0.216 0.546,0.41 0.818,0.613 0.335,0.251 0.666,0.512 1.008,0.743 0.329,0.219 0.676,0.413 1.015,0.614 0.312,0.188 0.619,0.385 0.939,0.554 0.344,0.185 0.704,0.343 1.06,0.51 0.334,0.158 0.664,0.326 1.004,0.465 0.343,0.143 0.698,0.259 1.049,0.385 0.366,0.13 0.731,0.273 1.102,0.385 0.348,0.105 0.704,0.185 1.06,0.273 0.383,0.098 0.763,0.203 1.15,0.282 0.403,0.079 0.816,0.127 1.227,0.186 0.341,0.05 0.68,0.113 1.024,0.147 0.752,0.079 1.52,0.119 2.294,0.119 0.774,0 1.541,-0.04 2.296,-0.116 0.344,-0.033 0.683,-0.098 1.024,-0.147 0.411,-0.059 0.824,-0.107 1.227,-0.186 0.386,-0.079 0.766,-0.185 1.15,-0.282 0.355,-0.088 0.712,-0.166 1.06,-0.273 0.371,-0.112 0.735,-0.254 1.102,-0.385 0.349,-0.126 0.706,-0.242 1.049,-0.385 0.341,-0.14 0.672,-0.307 1.004,-0.465 0.355,-0.168 0.715,-0.326 1.06,-0.51 0.318,-0.169 0.625,-0.366 0.939,-0.554 0.34,-0.203 0.686,-0.397 1.015,-0.614 0.344,-0.23 0.675,-0.49 1.008,-0.743 0.273,-0.203 0.554,-0.397 0.818,-0.613 0.586,-0.483 1.157,-0.995 1.707,-1.542 l 0.003,-0.003 46.542,-46.542 c 9.089,-9.087 9.089,-23.824 0,-32.912 -9.089,-9.088 -23.827,-9.092 -32.914,-0.002 z"
         id="path11" />
      <path
         style="fill:#f4b459;fill-opacity:1"
         d="m 201.697,349.091 v -54.303 c 0,-12.853 -10.42,-23.273 -23.273,-23.273 H 23.273 C 10.42,271.515 0,281.935 0,294.788 v 170.667 c 0,12.853 10.42,23.273 23.273,23.273 H 256 V 349.091 Z"
         id="path13" />
      <path
         style="fill:#f4b459;fill-opacity:1"
         d="m 232.727,46.545 v 129.997 l -6.817,-6.817 c -9.087,-9.089 -23.824,-9.089 -32.912,0 -9.089,9.087 -9.089,23.824 0,32.912 l 46.542,46.542 0.003,0.003 c 0.549,0.549 1.12,1.061 1.707,1.542 0.264,0.216 0.546,0.41 0.818,0.613 0.335,0.251 0.666,0.512 1.008,0.743 0.329,0.219 0.676,0.413 1.015,0.614 0.312,0.188 0.619,0.385 0.937,0.554 0.344,0.185 0.704,0.343 1.06,0.51 0.334,0.158 0.664,0.326 1.004,0.465 0.343,0.143 0.698,0.259 1.049,0.385 0.366,0.13 0.731,0.273 1.102,0.385 0.348,0.105 0.704,0.185 1.06,0.273 0.383,0.098 0.763,0.203 1.15,0.282 0.403,0.079 0.816,0.127 1.227,0.186 0.341,0.05 0.68,0.113 1.024,0.147 0.754,0.076 1.52,0.116 2.295,0.116 V 23.273 c -12.852,0 -23.272,10.42 -23.272,23.272 z"
         id="path15" />
      <g
         id="g17"
         style="fill:#f4b459;fill-opacity:1" />
      <g
         id="g19"
         style="fill:#f4b459;fill-opacity:1" />
      <g
         id="g21"
         style="fill:#f4b459;fill-opacity:1" />
      <g
         id="g23"
         style="fill:#f4b459;fill-opacity:1" />
      <g
         id="g25"
         style="fill:#f4b459;fill-opacity:1" />
      <g
         id="g27"
         style="fill:#f4b459;fill-opacity:1" />
      <g
         id="g29"
         style="fill:#f4b459;fill-opacity:1" />
      <g
         id="g31"
         style="fill:#f4b459;fill-opacity:1" />
      <g
         id="g33"
         style="fill:#f4b459;fill-opacity:1" />
      <g
         id="g35"
         style="fill:#f4b459;fill-opacity:1" />
      <g
         id="g37"
         style="fill:#f4b459;fill-opacity:1" />
      <g
         id="g39"
         style="fill:#f4b459;fill-opacity:1" />
      <g
         id="g41"
         style="fill:#f4b459;fill-opacity:1" />
      <g
         id="g43"
         style="fill:#f4b459;fill-opacity:1" />
      <g
         id="g45"
         style="fill:#f4b459;fill-opacity:1" />
    </g>
  </g>
</svg>
