<?xml version="1.0" encoding="UTF-8" standalone="no"?>
<!-- Generator: Adobe Illustrator 19.0.0, SVG Export Plug-In . SVG Version: 6.00 Build 0)  -->

<svg
   version="1.1"
   id="Layer_1"
   x="0px"
   y="0px"
   viewBox="0 0 512.003 512.003"
   style="enable-background:new 0 0 512.003 512.003;"
   xml:space="preserve"
   xmlns="http://www.w3.org/2000/svg"
   xmlns:svg="http://www.w3.org/2000/svg"><defs
   id="defs49" />
<g
   id="g6">
	<circle
   style="fill:#F4AD47;"
   cx="256"
   cy="256.001"
   r="86.184"
   id="circle2" />
	<path
   style="fill:#F4AD47;"
   d="M474.634,288.397l25.86-15.948v-32.895l-25.86-15.948h-28.823   c-2.016-11.895-5.116-23.423-9.207-34.469l24.937-14.396l14.421-26.742l-16.447-28.486l-30.369-0.882l-24.977,14.419   c-7.611-9.161-16.055-17.605-25.216-25.216l14.421-24.977l-0.882-30.369L364.005,36.04l-26.742,14.421l-14.398,24.937   c-11.047-4.092-22.573-7.191-34.469-9.207V37.367l-15.948-25.86h-32.895l-15.948,25.86V66.19   c-11.895,2.016-23.423,5.116-34.469,9.207l-14.398-24.937L147.995,36.04l-28.486,16.447l-0.882,30.369l14.421,24.977   c-9.161,7.611-17.605,16.055-25.216,25.216l-24.977-14.421l-30.369,0.882l-16.447,28.486l14.421,26.742l24.937,14.396   c-4.092,11.047-7.192,22.574-9.207,34.469H37.366l-25.86,15.95v32.895l25.86,15.948h28.823c2.016,11.895,5.116,23.423,9.207,34.469   l-24.937,14.398l-14.421,26.742l16.447,28.486l30.369,0.882l24.977-14.421c7.611,9.161,16.055,17.605,25.216,25.216l-14.421,24.977   l0.882,30.369l28.486,16.447l26.742-14.421l14.398-24.937c11.047,4.092,22.573,7.191,34.469,9.207v28.823l15.948,25.86h32.895   l15.948-25.86v-28.823c11.895-2.016,23.423-5.116,34.469-9.207l14.398,24.937l26.742,14.421l28.486-16.447l0.882-30.369   l-14.421-24.977c9.161-7.611,17.605-16.055,25.216-25.216l24.977,14.421l30.369-0.882l16.447-28.486l-14.421-26.742l-24.937-14.398   c4.092-11.047,7.192-22.573,9.207-34.469L474.634,288.397L474.634,288.397z M256,400.864c-80.006,0-144.863-64.857-144.863-144.863   S175.994,111.139,256,111.139s144.863,64.857,144.863,144.863S336.006,400.864,256,400.864z"
   id="path4" />
</g>
<g
   id="g14">
	<path
   style="fill:#231F20;"
   d="M256,99.633c-86.222,0-156.369,70.147-156.369,156.369S169.778,412.37,256,412.37   s156.369-70.147,156.369-156.369S342.222,99.633,256,99.633z M256,389.359c-73.534,0-133.357-59.823-133.357-133.357   S182.466,122.644,256,122.644s133.357,59.823,133.357,133.357S329.534,389.359,256,389.359z"
   id="path8" />
	<path
   style="fill:#231F20;"
   d="M506.533,229.761l-25.859-15.948c-1.815-1.12-3.906-1.713-6.039-1.713h-19.341   c-1.312-5.983-2.895-11.907-4.736-17.734l16.736-9.663c1.847-1.067,3.361-2.626,4.374-4.503l14.421-26.742   c1.894-3.514,1.832-7.758-0.163-11.214l-16.449-28.488c-1.996-3.457-5.641-5.632-9.629-5.748l-30.369-0.882   c-2.143-0.06-4.24,0.47-6.086,1.536l-16.778,9.688c-4.125-4.51-8.457-8.841-12.965-12.964l9.688-16.78   c1.066-1.848,1.598-3.955,1.536-6.086l-0.883-30.368c-0.116-3.99-2.292-7.634-5.749-9.63l-28.486-16.447   c-3.455-1.996-7.702-2.058-11.214-0.163l-26.743,14.421c-1.878,1.012-3.437,2.527-4.504,4.375l-9.662,16.736   c-5.826-1.842-11.752-3.424-17.733-4.736V37.367c0-2.133-0.593-4.224-1.711-6.04L282.24,5.467   c-2.095-3.397-5.802-5.465-9.794-5.465h-32.893c-3.991,0-7.699,2.068-9.793,5.467l-15.948,25.86   c-1.12,1.815-1.713,3.906-1.713,6.039v19.341c-5.983,1.312-11.907,2.894-17.734,4.736l-9.663-16.736   c-1.067-1.848-2.626-3.361-4.503-4.375l-26.742-14.421c-3.512-1.894-7.758-1.834-11.214,0.163l-28.486,16.447   c-3.457,1.996-5.632,5.641-5.748,9.63l-0.882,30.371c-0.062,2.131,0.47,4.24,1.536,6.086l9.688,16.78   c-4.509,4.123-8.841,8.455-12.964,12.964l-16.778-9.688c-1.847-1.066-3.955-1.606-6.086-1.536l-30.369,0.882   c-3.99,0.116-7.635,2.291-9.63,5.748l-16.447,28.486c-1.996,3.457-2.058,7.7-0.163,11.214l14.421,26.742   c1.012,1.877,2.527,3.436,4.375,4.503l16.736,9.663c-1.842,5.826-3.424,11.75-4.736,17.734H37.366   c-2.133,0-4.224,0.593-6.039,1.713l-25.86,15.947C2.068,231.857,0,235.563,0,239.554v32.895c0,3.991,2.068,7.699,5.467,9.793   l25.86,15.948c1.815,1.12,3.906,1.713,6.039,1.713h19.341c1.313,5.983,2.895,11.908,4.736,17.734L44.707,327.3   c-1.848,1.067-3.361,2.626-4.375,4.503l-14.421,26.742c-1.894,3.514-1.832,7.758,0.163,11.214l16.447,28.488   c1.996,3.456,5.641,5.632,9.63,5.749l30.371,0.882c2.143,0.063,4.24-0.47,6.086-1.536l16.78-9.688   c4.125,4.509,8.455,8.839,12.964,12.964l-9.688,16.78c-1.067,1.847-1.598,3.955-1.536,6.086l0.882,30.369   c0.116,3.99,2.291,7.635,5.748,9.63l28.488,16.447c3.456,1.996,7.702,2.057,11.214,0.163l26.742-14.421   c1.877-1.012,3.436-2.527,4.503-4.375l9.663-16.736c5.826,1.842,11.75,3.424,17.734,4.736v19.341c0,2.133,0.593,4.224,1.713,6.04   l15.948,25.859c2.095,3.397,5.802,5.465,9.793,5.465h32.893c3.991,0,7.699-2.068,9.793-5.465l15.95-25.859   c1.12-1.816,1.713-3.906,1.713-6.04v-19.341c5.983-1.313,11.905-2.895,17.733-4.736l9.662,16.736   c1.067,1.847,2.626,3.361,4.504,4.375l26.743,14.421c3.509,1.894,7.758,1.832,11.214-0.163l28.486-16.447   c3.456-1.996,5.632-5.641,5.749-9.63l0.882-30.369c0.062-2.131-0.47-4.24-1.536-6.086l-9.688-16.78   c4.509-4.123,8.839-8.454,12.965-12.964l16.778,9.688c1.845,1.066,3.931,1.592,6.086,1.536l30.369-0.882   c3.988-0.116,7.634-2.291,9.629-5.749l16.449-28.488c1.996-3.456,2.058-7.7,0.163-11.214l-14.421-26.742   c-1.013-1.877-2.527-3.436-4.374-4.503l-16.736-9.663c1.841-5.826,3.424-11.752,4.736-17.734h19.341   c2.133,0,4.225-0.593,6.039-1.713l25.859-15.948c3.397-2.095,5.467-5.802,5.467-9.793v-32.895   C512,235.563,509.932,231.857,506.533,229.761z M488.989,266.027l-17.617,10.864h-25.56c-5.612,0-10.405,4.05-11.345,9.584   c-1.871,11.045-4.782,21.944-8.654,32.396c-1.947,5.258,0.18,11.156,5.037,13.961l22.111,12.766l9.824,18.218l-10.026,17.363   l-20.69,0.601l-22.15-12.79c-4.848-2.8-11.02-1.7-14.602,2.61c-7.146,8.6-15.127,16.581-23.719,23.719   c-4.31,3.583-5.415,9.748-2.612,14.603l12.79,22.151l-0.601,20.69l-17.362,10.026l-18.219-9.824l-12.764-22.111   c-2.803-4.855-8.697-6.982-13.961-5.037c-10.451,3.87-21.35,6.781-32.396,8.654c-5.534,0.938-9.583,5.731-9.583,11.345v25.56   l-10.867,17.615h-20.05l-10.866-17.617v-25.56c0-5.612-4.049-10.405-9.583-11.345c-11.048-1.873-21.947-4.783-32.395-8.654   c-5.261-1.949-11.155,0.18-13.961,5.037l-12.765,22.111l-18.218,9.826l-17.363-10.026l-0.6-20.689l12.79-22.153   c2.803-4.854,1.7-11.021-2.612-14.603c-8.596-7.141-16.577-15.121-23.719-23.717c-3.581-4.31-9.748-5.416-14.602-2.612   l-22.151,12.79l-20.689-0.601l-10.026-17.363l9.824-18.218l22.111-12.766c4.857-2.804,6.984-8.701,5.037-13.961   c-3.869-10.449-6.781-21.347-8.654-32.395c-0.938-5.534-5.731-9.583-11.345-9.583H40.629l-17.618-10.866v-20.05l17.618-10.866   h25.56c5.612,0,10.405-4.049,11.345-9.583c1.873-11.048,4.783-21.947,8.654-32.395c1.947-5.26-0.18-11.156-5.037-13.961   L59.04,166.407l-9.824-18.218l10.026-17.363l20.689-0.6l22.151,12.79c4.855,2.803,11.022,1.7,14.604-2.612   c7.141-8.598,15.121-16.577,23.719-23.719c4.312-3.583,5.415-9.75,2.612-14.604l-12.79-22.151l0.6-20.69l17.363-10.026   l18.218,9.826l12.765,22.111c2.804,4.857,8.701,6.984,13.961,5.037c10.45-3.87,21.349-6.781,32.396-8.652   c5.534-0.938,9.584-5.731,9.584-11.345V40.631l10.864-17.618h20.05l10.866,17.618v25.56c0,5.613,4.05,10.407,9.584,11.345   c11.044,1.871,21.944,4.782,32.394,8.652c5.259,1.947,11.156-0.18,13.961-5.037l12.764-22.111l18.219-9.824l17.362,10.026   l0.601,20.69l-12.79,22.151c-2.802,4.854-1.699,11.021,2.612,14.604c8.593,7.138,16.572,15.118,23.719,23.719   c3.581,4.31,9.751,5.415,14.602,2.61l22.15-12.79l20.69,0.6l10.026,17.363l-9.824,18.218l-22.111,12.765   c-4.857,2.804-6.984,8.701-5.037,13.961c3.87,10.453,6.783,21.352,8.654,32.395c0.938,5.534,5.731,9.584,11.345,9.584h25.56   l17.618,10.866V266.027z"
   id="path10" />
	<path
   style="fill:#231F20;"
   d="M256,158.312c-53.866,0-97.69,43.823-97.69,97.69s43.823,97.69,97.69,97.69   s97.69-43.823,97.69-97.69S309.866,158.312,256,158.312z M256,330.68c-41.177,0-74.679-33.5-74.679-74.679   s33.5-74.679,74.679-74.679s74.679,33.5,74.679,74.679S297.179,330.68,256,330.68z"
   id="path12" />
</g>
<g
   id="g16">
</g>
<g
   id="g18">
</g>
<g
   id="g20">
</g>
<g
   id="g22">
</g>
<g
   id="g24">
</g>
<g
   id="g26">
</g>
<g
   id="g28">
</g>
<g
   id="g30">
</g>
<g
   id="g32">
</g>
<g
   id="g34">
</g>
<g
   id="g36">
</g>
<g
   id="g38">
</g>
<g
   id="g40">
</g>
<g
   id="g42">
</g>
<g
   id="g44">
</g>
<path
   style="fill:#f4b459;stroke-width:1.41421"
   d="m 237.03962,327.27652 c -26.33418,-7.08214 -47.52938,-29.5817 -53.18181,-56.45462 -2.60023,-12.36208 -2.6084,-17.316 -0.0485,-29.39706 7.29714,-34.43708 37.33399,-58.99129 72.16329,-58.99129 26.11168,0 51.21037,14.51672 64.12487,37.0889 5.19305,9.0765 10.12135,26.82488 10.12135,36.4502 0,9.61814 -4.92227,27.35315 -10.14738,36.56118 -9.21885,16.24606 -27.30654,30.00263 -45.77283,34.8125 -10.28773,2.67961 -27.15313,2.64801 -37.25904,-0.0699 z"
   id="path1375" /><path
   style="fill:#f4b459;stroke-width:1.41421"
   d="m 240.76986,478.94384 c -5.18737,-8.71563 -5.3033,-9.22176 -5.3033,-23.15313 0,-18.80479 -0.60516,-19.54707 -19.95078,-24.47168 -8.0836,-2.05777 -17.59009,-4.58409 -21.12552,-5.61408 -9.66069,-2.81444 -13.01218,-0.55362 -21.57455,14.5536 -6.51499,11.4949 -7.69877,12.7807 -15.29846,16.61701 -4.53038,2.28693 -8.84084,4.15806 -9.57878,4.15806 -0.73795,0 -4.88013,-2.06829 -9.20484,-4.59619 l -7.86311,-4.5962 -0.0279,-9.55708 c -0.0259,-8.89095 0.46497,-10.4239 7.04319,-21.99366 10.1338,-17.8233 10.11069,-17.92717 -8.05173,-36.1778 -8.31754,-8.35793 -16.33176,-15.84326 -17.80939,-16.63406 -3.77728,-2.02154 -8.26189,-0.57359 -20.608715,6.65396 -10.152163,5.94285 -11.335083,6.28992 -21.38285,6.27407 l -10.636166,-0.0168 -4.610375,-8.39402 -4.610375,-8.39403 4.92643,-8.9133 c 4.513594,-8.16639 5.936918,-9.48405 16.984744,-15.72381 13.326676,-7.52686 15.469695,-10.15093 14.488976,-17.74137 -1.477861,-11.43813 -9.696425,-39.18872 -12.413825,-41.91618 -2.38304,-2.39188 -5.279394,-2.93756 -18.765304,-3.53554 -15.111575,-0.67005 -16.369596,-0.96363 -24.005018,-5.60211 l -8.057698,-4.89499 v -9.30189 -9.30189 l 8.057698,-4.89499 c 7.635422,-4.63848 8.893443,-4.93205 24.005018,-5.60211 13.48591,-0.59797 16.382264,-1.14366 18.765304,-3.53553 2.7174,-2.72747 10.935964,-30.47806 12.413825,-41.91619 0.980719,-7.59043 -1.1623,-10.21451 -14.488976,-17.74136 -11.076263,-6.25583 -12.463458,-7.54354 -17.032957,-15.81152 l -4.974644,-9.00102 4.722543,-7.96954 4.722543,-7.96953 10.403518,-0.41984 c 10.090498,-0.40721 10.733294,-0.22822 21.363971,5.94862 12.682683,7.36914 16.955153,8.73042 20.853313,6.64418 1.54417,-0.82641 9.55839,-8.27796 17.80939,-16.55901 18.0619,-18.12767 18.10015,-18.3022 7.93075,-36.18811 -6.57551,-11.564997 -7.07107,-13.111493 -7.07107,-22.067064 v -9.630492 l 8.90596,-4.758379 8.90596,-4.75838 8.5144,4.538128 c 7.78543,4.149595 9.15096,5.629458 15.94942,17.285065 8.78504,15.06149 11.4514,16.834194 21.10203,14.029551 3.64419,-1.059066 13.23966,-3.609196 21.32326,-5.666956 19.34562,-4.924615 19.95078,-5.666895 19.95078,-24.471675 0,-13.931377 0.11596,-14.437509 5.3033,-23.153145 l 5.3033,-8.910419 9.9592,-0.02471 9.95922,-0.02471 5.24358,8.963774 c 5.10628,8.729046 5.24359,9.335989 5.24359,23.177851 0,18.772176 0.61012,19.519677 19.95078,24.443028 8.0836,2.05776 17.67907,4.60789 21.32325,5.666956 9.68122,2.813529 12.38306,1.01948 21.21153,-14.08466 6.69794,-11.459125 8.27873,-13.199883 15.4654,-17.030335 4.40268,-2.346606 8.66053,-4.266556 9.46186,-4.266556 0.80135,0 4.99539,2.068287 9.32011,4.596194 l 7.86311,4.596194 0.0279,9.55708 c 0.0259,8.890961 -0.46496,10.423899 -7.04318,21.993654 -10.1338,17.823306 -10.11069,17.927176 8.05173,36.177806 8.31754,8.35793 16.33176,15.84326 17.80939,16.63406 3.76444,2.01466 8.24377,0.58038 20.79268,-6.65784 10.22931,-5.90025 11.54368,-6.28595 21.36741,-6.2702 l 10.46764,0.0168 4.65849,8.48087 4.65849,8.48087 -4.96038,8.82647 c -4.50406,8.01448 -6.07578,9.46199 -17.08528,15.7349 -6.6687,3.79967 -12.73771,8.05351 -13.48669,9.45297 -1.98724,3.71319 -1.66942,10.00382 0.86132,17.04835 1.22272,3.40351 3.40907,11.53886 4.85856,18.07855 3.74408,16.89215 4.73208,17.63895 24.49523,18.51525 15.11156,0.67006 16.36959,0.96363 24.00502,5.60211 l 8.05769,4.89499 v 9.49691 9.4969 l -8.13173,4.69998 c -7.56737,4.3738 -9.23336,4.74906 -24.00501,5.40709 -19.67925,0.87666 -20.67981,1.63523 -24.4212,18.51525 -1.44949,6.5397 -3.63584,14.67504 -4.85856,18.07856 -2.54794,7.0924 -2.84669,13.33865 -0.81916,17.12713 0.77217,1.44281 6.97703,5.83223 13.78858,9.75427 11.25025,6.47781 12.81071,7.91298 17.03627,15.6685 l 4.65163,8.53753 -4.65163,8.4685 -4.65164,8.46851 -10.46764,0.0168 c -9.82373,0.0157 -11.1381,-0.36995 -21.36741,-6.2702 -12.60135,-7.26847 -17.02663,-8.67336 -20.85922,-6.62223 -1.51421,0.81039 -9.52844,8.33961 -17.80939,16.73159 -12.28646,12.45118 -15.05624,16.02614 -15.05624,19.43308 0,2.40894 2.99107,9.43567 7.07107,16.61153 6.57196,11.55877 7.07106,13.11507 7.07106,22.04922 v 9.61264 l -7.90542,4.54063 c -4.34797,2.49736 -8.47045,4.54064 -9.16105,4.54064 -0.6906,0 -4.83886,-1.75009 -9.21834,-3.88909 -7.32243,-3.57636 -8.58685,-4.94843 -15.7248,-17.06335 -9.12657,-15.49015 -11.71134,-17.23556 -21.36816,-14.42911 -3.64418,1.05907 -13.23965,3.60919 -21.32325,5.66696 -19.34066,4.92334 -19.95078,5.67085 -19.95078,24.44302 0,13.84186 -0.13732,14.44881 -5.24359,23.17785 l -5.24358,8.96378 -9.95922,-0.0247 -9.9592,-0.0248 -5.3033,-8.91042 z m 40.82694,-68.15132 c 66.59833,-11.44209 118.47546,-63.17855 129.33502,-128.98436 2.02961,-12.2988 2.02961,-39.37222 0,-51.67101 C 394.96976,133.41174 294.15096,75.055321 201.3938,108.85136 c -43.74043,15.93681 -78.88456,52.08931 -94.1158,96.8162 -10.479691,30.77384 -10.479691,69.83634 0,100.61018 24.76015,72.70875 99.30469,117.40277 174.3188,104.51478 z"
   id="path1414" /><path
   style="fill:#f4b459;stroke-width:1.41421"
   d="m 237.38201,511.03355 c -4.0452,-0.8805 -5.77126,-2.99909 -15.90942,-19.52732 l -8.63345,-14.07512 v -11.49139 -11.49139 l -6.71751,-1.6233 c -3.69464,-0.89281 -7.99031,-1.98103 -9.54595,-2.41826 -2.33243,-0.65558 -3.79282,0.9297 -8.32799,9.0402 -5.43581,9.72121 -5.68357,9.93492 -21.37562,18.43884 -8.73184,4.73202 -17.39397,8.577 -19.24918,8.54443 -4.91186,-0.0863 -35.5511,-18.52815 -37.64694,-22.65986 -1.09813,-2.16487 -1.75466,-9.83914 -1.76776,-20.66383 l -0.0208,-17.21996 5.61506,-9.65009 5.61507,-9.6501 -6.87615,-6.90111 -6.87615,-6.90109 -10.830822,5.97874 -10.830819,5.97874 -17.664069,-1.01882 c -13.142368,-0.75802 -18.35632,-1.60797 -20.36835,-3.32028 -2.806893,-2.38879 -17.357568,-26.96862 -19.858014,-33.54529 -1.237101,-3.25382 -0.375432,-5.74175 6.504405,-18.78034 9.360133,-17.73925 10.749001,-19.38541 21.038311,-24.93583 8.492893,-4.58137 8.650963,-4.99927 5.881519,-15.54967 l -1.856132,-7.07107 -11.870036,-0.77725 C 34.372469,298.99413 33.452912,298.6658 20.506097,290.7078 0.03542888,278.12512 0.70710678,279.30351 0.70710678,255.97265 c 0,-23.34093 -0.65553508,-22.1928 19.79899022,-34.67697 12.882816,-7.86287 13.925506,-8.23424 25.36809,-9.03532 l 11.933061,-0.83543 1.828241,-7.07107 c 1.005533,-3.88909 1.838293,-8.02566 1.850576,-9.19239 0.0123,-1.16673 -3.511329,-4.02751 -7.830253,-6.35729 -10.28931,-5.55042 -11.678178,-7.19657 -21.038311,-24.93582 -6.967347,-13.20444 -7.752603,-15.49733 -6.466206,-18.88081 2.688427,-7.0711 18.658472,-33.30596 21.01819,-34.52772 1.280394,-0.66293 10.282941,-1.62981 20.005659,-2.14862 l 17.677669,-0.94328 9.702765,5.713 c 5.336521,3.14216 10.133412,5.71301 10.659762,5.71301 0.52635,0 3.93158,-3.02288 7.56718,-6.71752 l 6.61018,-6.71751 -5.60268,-9.650096 -5.60268,-9.650095 0.0208,-17.219962 c 0.0131,-10.829417 0.66915,-18.494835 1.76776,-20.655231 2.1495,-4.226929 32.82493,-22.556131 37.80937,-22.591879 1.94454,-0.014 10.21769,3.610476 18.38477,8.054271 13.66589,7.435755 15.32572,8.804448 20.82834,17.174969 3.28852,5.002435 6.15971,9.637163 6.38045,10.299393 0.22075,0.662231 4.68961,0.07934 9.93081,-1.295326 l 9.52945,-2.499383 0.001,-11.33867 0.001,-11.338669 8.62352,-14.142135 C 234.37755,-0.6704513 231.9767,0.70710678 255.97084,0.70710678 c 23.9952,0 21.62304,-1.3558283 34.52323,19.73197022 l 8.61122,14.075115 v 11.491393 11.491394 l 6.71751,1.623294 c 3.69463,0.892813 8.01087,1.994701 9.59162,2.448641 2.29726,0.659696 3.54456,-0.397918 6.21452,-5.269492 6.55839,-11.966351 9.70313,-14.876892 24.76353,-22.919287 8.16159,-4.35836 16.2934,-7.897639 18.07071,-7.865062 4.80995,0.08816 35.44424,18.596707 37.5053,22.65986 1.11506,2.198228 1.7364,9.837814 1.71783,21.121531 l -0.0291,17.67767 -5.58251,9.168587 -5.58253,9.168589 6.63995,6.74131 c 3.65202,3.70773 7.08531,6.74132 7.62958,6.74132 0.54429,0 5.49049,-2.59496 10.99158,-5.76657 l 10.00198,-5.76657 17.97067,1.0238 c 15.58998,0.88816 18.3617,1.41791 20.92236,3.9988 5.45822,5.50137 20.8323,34.4978 19.88067,37.49613 -1.48293,4.67228 -14.97307,28.9386 -17.76364,31.95359 -1.44325,1.55931 -6.15775,4.74129 -10.47668,7.07106 -4.31892,2.32978 -7.85481,5.09262 -7.85752,6.13963 -0.003,1.04701 0.97613,5.27848 2.17523,9.40325 l 2.18019,7.49957 11.60839,0.54535 c 11.30278,0.53099 11.96213,0.76332 25.04343,8.82448 20.47653,12.61835 19.79899,11.42898 19.79899,34.75619 0,23.35683 0.62558,22.25726 -19.79899,34.80015 -13.07404,8.02887 -13.74695,8.265 -25.04343,8.78822 l -11.60839,0.53766 -2.18019,7.49957 c -1.1991,4.12477 -2.17796,8.35624 -2.17523,9.40325 0.003,1.04701 3.5386,3.80985 7.85752,6.13962 4.31893,2.32978 9.03343,5.51176 10.47668,7.07107 2.79057,3.01499 16.28071,27.28131 17.76364,31.95359 0.95376,3.00506 -14.42795,32.00046 -19.9032,37.51866 -2.58427,2.60452 -5.31523,3.13255 -20.82952,4.02738 l -17.85532,1.02986 -10.83081,-5.97874 -10.83082,-5.97874 -6.87615,6.90109 -6.87615,6.90111 5.61507,9.6501 5.61506,9.65009 -0.0208,17.21996 c -0.0127,11.01746 -0.6637,18.49059 -1.8056,20.74761 -2.17574,4.30043 -32.66774,22.49965 -37.77153,22.54402 -1.94455,0.017 -10.2177,-3.61493 -18.38478,-8.07072 -13.65591,-7.45039 -15.32973,-8.83263 -20.82834,-17.19991 -3.28851,-5.00417 -6.1597,-9.6403 -6.38045,-10.30252 -0.22074,-0.66223 -4.6896,-0.0793 -9.9308,1.29532 l -9.52951,2.49939 v 11.40569 11.40568 l -8.61029,14.07512 c -12.74273,20.83039 -10.9122,19.69168 -32.08642,19.95987 -9.89625,0.1253 -19.35859,-0.0693 -21.02745,-0.43255 z m 34.8766,-30.55449 5.60748,-8.83884 0.0142,-14.95628 c 0.0127,-13.7195 0.27937,-15.20612 3.22952,-17.97764 1.76886,-1.66176 6.70093,-3.73514 10.96016,-4.60754 4.25924,-0.87238 13.28611,-3.21438 20.05973,-5.20443 11.52383,-3.38566 12.53911,-3.47187 15.79125,-1.34099 1.91157,1.25252 6.49972,7.59393 10.19588,14.09203 6.22291,10.94033 7.41669,12.19559 16.1297,16.96057 l 9.40941,5.14581 9.09123,-5.28066 9.09125,-5.28067 0.41052,-10.78781 c 0.40753,-10.70889 0.35839,-10.87606 -6.71752,-22.85582 -3.92112,-6.63742 -7.12874,-13.63319 -7.12874,-15.54617 0,-2.52826 4.20171,-7.72677 15.38496,-19.03482 8.46174,-8.55617 16.7674,-15.99543 18.45704,-16.5317 2.25174,-0.71469 6.47471,0.9596 15.81472,6.27004 l 12.74264,7.2451 11.49271,-0.40934 11.49269,-0.40935 4.86175,-8.32858 4.86176,-8.3286 -4.60429,-9.51751 c -4.40389,-9.1033 -5.13984,-9.8299 -16.9104,-16.69541 -6.76837,-3.94785 -13.12034,-8.15896 -14.11548,-9.35803 -2.23713,-2.69558 -1.67587,-6.74053 3.93814,-28.38204 5.86498,-22.60902 6.67295,-23.33452 25.98669,-23.33452 13.93162,0 14.51785,-0.13223 23.25566,-5.2436 l 8.96378,-5.24357 -0.0247,-10.66633 -0.0247,-10.66631 -8.91042,-5.3033 c -8.72423,-5.19248 -9.20966,-5.3033 -23.23095,-5.3033 -19.34197,0 -20.14448,-0.71945 -26.0283,-23.33452 -6.5939,-25.34428 -6.63071,-26.52822 -0.95641,-30.74795 2.60054,-1.93391 8.89173,-5.81083 13.98039,-8.61539 8.54327,-4.70852 9.6148,-5.84892 13.98607,-14.88475 l 4.73395,-9.78555 -5.24963,-8.64182 -5.24955,-8.64182 h -11.19429 c -10.86068,0 -11.56359,0.21225 -23.58569,7.12206 -8.85474,5.08936 -13.33081,6.89016 -15.68289,6.30953 -5.21286,-1.28684 -34.18515,-31.48197 -34.18515,-35.628 0,-1.89459 3.20762,-8.875311 7.12803,-15.512725 7.07591,-11.979758 7.12505,-12.146925 6.71752,-22.855825 l -0.41052,-10.787802 -9.04139,-5.251688 -9.04141,-5.251687 -9.49462,5.179018 c -8.8084,4.80471 -9.97776,6.028422 -16.17954,16.931579 -8.35749,14.693056 -11.56778,17.084385 -19.66954,14.651781 -3.22848,-0.969369 -12.23393,-3.369341 -20.0121,-5.333274 -19.89879,-5.024299 -20.50276,-5.743039 -20.51953,-24.419252 l -0.0134,-14.956279 -5.60748,-8.838834 -5.60747,-8.838835 H 256.0429 245.43466 l -5.66147,8.838835 -5.66146,8.838834 -0.0297,14.932497 c -0.0201,10.12529 -0.63312,15.757725 -1.90409,17.495876 -1.18547,1.621236 -7.55277,4.030409 -17.32411,6.554878 -8.49736,2.195325 -18.09121,4.778223 -21.31969,5.739771 -8.10949,2.41528 -11.31749,0.01751 -19.70492,-14.728177 -6.22291,-10.940321 -7.41669,-12.195584 -16.1297,-16.960559 l -9.4094,-5.145819 -9.09123,5.280667 -9.09124,5.280668 -0.40896,10.700579 c -0.40508,10.599391 -0.34156,10.815081 6.71752,22.808749 3.91955,6.659492 7.12647,13.722964 7.12647,15.696604 0,2.66722 -3.92619,7.55844 -15.29386,19.05297 -8.41162,8.50551 -16.71728,15.91633 -18.45703,16.46851 -2.36663,0.75113 -6.34733,-0.80645 -15.807708,-6.18535 -12.279565,-6.9818 -12.969439,-7.1893 -23.901626,-7.1893 h -11.2571 l -5.147086,8.78216 -5.147085,8.78217 4.555025,9.41569 c 4.138703,8.55513 5.410795,9.9063 13.918172,14.78333 15.919376,9.12612 18.555538,11.51581 18.555538,16.82067 0,2.58498 -0.991868,7.48467 -2.204152,10.88819 -1.212284,3.40351 -3.142861,10.32479 -4.290171,15.3806 -4.287015,18.89143 -5.462739,19.79899 -25.649287,19.79899 -13.218425,0 -13.892113,0.15853 -22.536166,5.3033 l -8.91042,5.3033 v 10.6066 10.60661 l 8.91042,5.3033 c 8.724225,5.19248 9.209664,5.3033 23.230955,5.3033 19.19684,0 20.124466,0.80775 25.985085,22.62741 2.402544,8.9449 4.455644,19.12724 4.562445,22.62742 0.209244,6.85752 0.162519,6.90073 -22.433233,20.73666 -2.538557,1.55442 -6.187071,6.33787 -9.083669,11.90933 l -4.841028,9.31145 5.296975,8.71977 5.296977,8.71976 h 11.222453 c 10.890533,0 11.596432,-0.21263 23.866978,-7.1893 9.364918,-5.32462 13.453388,-6.93258 15.763088,-6.19951 1.71521,0.54439 10.02087,7.9987 18.45703,16.56516 11.1615,11.33386 15.33848,16.52625 15.33848,19.06714 0,1.92047 -3.20692,8.94044 -7.12647,15.59995 -7.05908,11.99366 -7.1226,12.20935 -6.71752,22.80874 l 0.40896,10.70058 9.09124,5.28067 9.09123,5.28066 9.43099,-5.15761 c 8.72645,-4.77233 9.93955,-6.04468 16.23878,-17.03204 9.57494,-16.70092 10.53227,-17.16995 25.85648,-12.66777 6.77362,1.99005 15.80048,4.33205 20.05973,5.20443 4.25923,0.8724 9.1913,2.94578 10.96015,4.60754 2.95015,2.77152 3.21721,4.25814 3.22953,17.97764 l 0.0141,14.95628 5.60748,8.83884 5.60747,8.83883 h 10.67849 10.67849 l 5.60747,-8.83883 z"
   id="path1453" /><path
   style="fill:#f4b459;stroke-width:1.41421"
   d="m 229.32218,409.37059 c -22.21446,-4.19909 -43.47616,-13.154 -62.70456,-26.40966 -12.64676,-8.71842 -31.54896,-28.21636 -40.61262,-41.89263 -33.69588,-50.84409 -33.69588,-119.34721 0,-170.1913 9.14396,-13.79741 27.98601,-33.18335 40.98942,-42.17261 14.24428,-9.84706 34.38839,-19.17572 51.10934,-23.66855 20.35345,-5.468852 55.38434,-5.468852 75.73779,0 16.75903,4.50306 36.87143,13.82589 51.20816,23.73687 14.00709,9.68309 34.08923,30.86168 43.01142,45.35973 37.48438,60.91009 29.51079,136.95292 -19.76509,188.4964 -20.83972,21.79873 -46.11196,36.78895 -74.45449,44.16269 -17.64829,4.59146 -47.54977,5.78672 -64.51937,2.57906 z m 55.57022,-22.54548 c 39.97214,-8.49428 75.2764,-36.98239 92.78032,-74.86733 9.20226,-19.91709 11.20016,-29.90376 11.20016,-55.98513 0,-20.05584 -0.45189,-24.90333 -3.21601,-34.49979 -14.05738,-48.80431 -50.29557,-83.93278 -98.89068,-95.86234 -17.36657,-4.2633 -44.2205,-4.2633 -61.58707,0 -40.01134,9.82234 -71.74015,35.22856 -89.50861,71.67227 -10.2453,21.01346 -12.45127,31.41141 -12.45127,58.68986 0,19.70928 0.48517,25.09223 3.12283,34.64824 6.65133,24.09715 20.83766,47.28072 39.26277,64.164 21.03275,19.27269 44.2392,29.82635 76.22568,34.66538 7.66778,1.16001 32.32261,-0.34301 43.06188,-2.62516 z"
   id="path1492" /><path
   style="fill:#f4b459;stroke-width:1.41421"
   d="m 246.78027,352.59762 c -27.29835,-3.4582 -51.75254,-17.10247 -67.20627,-37.49786 -37.39697,-49.35546 -21.25828,-118.12463 34.2602,-145.98743 47.31483,-23.74566 105.73774,-3.3123 129.06691,45.14102 30.00357,62.3157 -12.14207,133.43016 -81.97871,138.32679 -5.05581,0.35449 -11.41977,0.36235 -14.14213,0.0175 z m 34.59288,-25.66618 c 33.46668,-12.19612 54.38642,-47.09551 49.10469,-81.91894 -4.57008,-30.13132 -28.93678,-56.37839 -57.95779,-62.43034 -26.16138,-5.45562 -50.47872,1.72603 -69.26077,20.4548 -12.29824,12.26335 -19.21605,25.67511 -21.793,42.2507 -5.67904,36.52904 18.3962,73.13379 54.97795,83.59022 10.32671,2.95176 34.34312,1.91131 44.92892,-1.94644 z"
   id="path1531" /></svg>
