<?xml version="1.0" encoding="UTF-8" standalone="no"?>
<!-- Generator: Adobe Illustrator 19.0.0, SVG Export Plug-In . SVG Version: 6.00 Build 0)  -->

<svg
   version="1.1"
   id="Layer_1"
   x="0px"
   y="0px"
   viewBox="0 0 461.001 461.001"
   style="enable-background:new 0 0 461.001 461.001;"
   xml:space="preserve"
   sodipodi:docname="youtube.svg"
   inkscape:version="1.1.1 (3bf5ae0d25, 2021-09-20)"
   xmlns:inkscape="http://www.inkscape.org/namespaces/inkscape"
   xmlns:sodipodi="http://sodipodi.sourceforge.net/DTD/sodipodi-0.dtd"
   xmlns="http://www.w3.org/2000/svg"
   xmlns:svg="http://www.w3.org/2000/svg"><defs
   id="defs39" /><sodipodi:namedview
   id="namedview37"
   pagecolor="#ffffff"
   bordercolor="#666666"
   borderopacity="1.0"
   inkscape:pageshadow="2"
   inkscape:pageopacity="0.0"
   inkscape:pagecheckerboard="0"
   showgrid="false"
   inkscape:zoom="1.8937052"
   inkscape:cx="230.23647"
   inkscape:cy="230.5005"
   inkscape:window-width="1271"
   inkscape:window-height="1081"
   inkscape:window-x="996"
   inkscape:window-y="91"
   inkscape:window-maximized="0"
   inkscape:current-layer="Layer_1" />
<g
   id="g4">
	<path
   style="fill:#F61C0D;"
   d="M365.257,67.393H95.744C42.866,67.393,0,110.259,0,163.137v134.728   c0,52.878,42.866,95.744,95.744,95.744h269.513c52.878,0,95.744-42.866,95.744-95.744V163.137   C461.001,110.259,418.135,67.393,365.257,67.393z M300.506,237.056l-126.06,60.123c-3.359,1.602-7.239-0.847-7.239-4.568V168.607   c0-3.774,3.982-6.22,7.348-4.514l126.06,63.881C304.363,229.873,304.298,235.248,300.506,237.056z"
   id="path2" />
</g>
<g
   id="g6">
</g>
<g
   id="g8">
</g>
<g
   id="g10">
</g>
<g
   id="g12">
</g>
<g
   id="g14">
</g>
<g
   id="g16">
</g>
<g
   id="g18">
</g>
<g
   id="g20">
</g>
<g
   id="g22">
</g>
<g
   id="g24">
</g>
<g
   id="g26">
</g>
<g
   id="g28">
</g>
<g
   id="g30">
</g>
<g
   id="g32">
</g>
<g
   id="g34">
</g>
<path
   style="fill:#ffffff;stroke-width:0.528065"
   d="m 170.03703,296.66296 c -2.43272,-1.39516 -2.34181,1.14625 -2.3595,-65.95923 -0.0166,-63.03455 -0.006,-63.70662 1.04577,-65.0435 2.4882,-3.16324 -1.25328,-4.82766 67.9905,30.24587 35.06545,17.76143 64.3048,32.83139 64.97634,33.4888 1.43806,1.40779 1.6677,3.94141 0.51648,5.69839 -0.93004,1.41942 -127.93635,62.21796 -129.91598,62.19142 -0.65861,-0.009 -1.67274,-0.28862 -2.25361,-0.62175 z"
   id="path171" /></svg>
